<?xml version="1.0" encoding="UTF-8"?>
<svg width="625px" height="634px" viewBox="0 0 625 634" version="1.1" xmlns="http://www.w3.org/2000/svg" xmlns:xlink="http://www.w3.org/1999/xlink">
    <!-- Generator: Sketch 51.2 (57519) - http://www.bohemiancoding.com/sketch -->
    <title>Group 19</title>
    <desc>Created with Sketch.</desc>
    <defs>
        <radialGradient cx="44.4857108%" cy="50%" fx="44.4857108%" fy="50%" r="58.9705664%" gradientTransform="translate(0.444857,0.500000),scale(0.945794,1.000000),rotate(91.398389),translate(-0.444857,-0.500000)" id="radialGradient-1">
            <stop stop-color="#8DE8FF" offset="0%"></stop>
            <stop stop-color="#73A2F7" offset="100%"></stop>
        </radialGradient>
        <ellipse id="path-2" cx="216.389526" cy="204.66" rx="216.389526" ry="204.66"></ellipse>
        <filter x="-36.9%" y="-39.0%" width="173.7%" height="177.9%" filterUnits="objectBoundingBox" id="filter-3">
            <feOffset dx="0" dy="0" in="SourceAlpha" result="shadowOffsetOuter1"></feOffset>
            <feGaussianBlur stdDeviation="59.5" in="shadowOffsetOuter1" result="shadowBlurOuter1"></feGaussianBlur>
            <feColorMatrix values="0 0 0 0 0.0117647059   0 0 0 0 0.662745098   0 0 0 0 0.956862745  0 0 0 1 0" type="matrix" in="shadowBlurOuter1"></feColorMatrix>
        </filter>
        <polygon id="path-4" points="246 0 167 0 167 385 246 385 246 0"></polygon>
        <linearGradient x1="50%" y1="-19.7284129%" x2="50%" y2="91.6694964%" id="linearGradient-6">
            <stop stop-color="#05223F" offset="0%"></stop>
            <stop stop-color="#061943" offset="100%"></stop>
        </linearGradient>
        <linearGradient x1="50%" y1="-19.7284129%" x2="50%" y2="93.5615765%" id="linearGradient-7">
            <stop stop-color="#05223F" offset="0%"></stop>
            <stop stop-color="#05163B" offset="100%"></stop>
        </linearGradient>
        <linearGradient x1="50%" y1="-19.7284129%" x2="50%" y2="93.5615765%" id="linearGradient-8">
            <stop stop-color="#05223F" offset="0%"></stop>
            <stop stop-color="#2B65E1" offset="100%"></stop>
        </linearGradient>
    </defs>
    <g id="Page-1" stroke="none" stroke-width="1" fill="none" fill-rule="evenodd">
        <g id="Landing--11" transform="translate(-570.000000, -466.000000)">
            <g id="Group-9">
                <g transform="translate(-264.000000, -2.000000)" id="Group-5">
                    <g>
                        <g id="Group-7">
                            <g id="Group-19" transform="translate(930.000000, 565.000000)">
                                <g id="Oval">
                                    <use fill="black" fill-opacity="1" filter="url(#filter-3)" xlink:href="#path-2"></use>
                                    <use fill="url(#radialGradient-1)" fill-rule="evenodd" xlink:href="#path-2"></use>
                                </g>
                                <g id="Page-1" transform="translate(0.000000, 56.000000)">
                                    <path d="M87.0787658,387 C86.7034813,387 86.2959255,386.991667 85.9149155,386.970315 C65.223781,385.843844 48.8991672,356.457177 36,297.126077 L40.6980826,296.103764 C52.7321697,351.44092 68.4540382,381.199952 86.1704837,382.166019 C122.55642,384.105444 160.067169,273.12595 160.442974,272 L165,273.525917 C163.439004,278.202619 126.618445,387 87.0787658,387 Z" id="Fill-1" fill="#051A3C"></path>
                                    <path d="M17.033872,284.359947 C17.033872,281.76656 20.4206334,278.866477 24.6004481,278.866477 C28.7761268,278.866477 32.1566844,281.76656 32.1566844,284.359947 L32.1566844,293.516597 L17.033872,293.516597 L17.033872,284.359947 Z M17.033872,311.448867 C17.033872,308.847162 20.4206334,305.952798 24.6004481,305.952798 C28.7761268,305.952798 32.1566844,308.847162 32.1566844,311.448867 L32.1566844,324.749011 L17.033872,324.749011 L17.033872,311.448867 Z M17.033872,342.124553 C17.033872,339.525967 20.4206334,336.629004 24.6004481,336.629004 C28.7761268,336.629004 32.1566844,339.525967 32.1566844,342.124553 L32.1566844,357.912561 L17.033872,357.912561 L17.033872,342.124553 Z M17.033872,374.462627 C17.033872,371.869239 20.4206334,368.969677 24.6004481,368.969677 C28.7761268,368.969677 32.1566844,371.869239 32.1566844,374.462627 L32.1566844,399.373497 L17.033872,399.373497 L17.033872,374.462627 Z M12,420 L39,400.796767 L39,267 L12,267 L12,420 Z" id="Fill-17" fill="#399DFF"></path>
                                    <path d="M29.4785796,393 C32.8008713,393 36.1666609,392.322761 39.5195187,390.972946 C110.68898,362.34029 167.617026,20.2334765 170,5.68449344 L164.619792,5 C164.042564,8.53179959 105.763736,359.064981 37.2593963,386.619858 C31.0633104,389.11585 25.1058746,388.671784 19.0690847,385.256053 L17,389.749563 C21.3844611,392.225346 24.9836105,393 29.4785796,393" id="Fill-3" fill="#051A3C"></path>
                                    <polygon id="Fill-5" fill="#051A3C" points="216 79 221 85.7882869 221 381 216 381"></polygon>
                                    <polygon id="Fill-7" fill="#051A3C" points="200 79 205 85.7882869 205 381 200 381"></polygon>
                                    <polygon id="Fill-9" fill="#051A3C" points="185 41 190 48.6414927 190 381 185 381"></polygon>
                                    <path d="M485.874576,331 L489,324.242317 C487.502944,322.99744 339.388693,198.740347 244.516077,0 L238,3.07798743 C333.579719,203.304724 484.366577,329.749422 485.874576,331" id="Fill-11" fill="#399DFF"></path>
                                    <mask id="mask-5" fill="white">
                                        <use xlink:href="#path-4"></use>
                                    </mask>
                                    <g id="Clip-15"></g>
                                    <path d="M181.739769,49.9479206 C181.739769,42.4764264 191.642921,34.1420417 203.860396,34.1420417 C216.073169,34.1420417 225.981546,42.4764264 225.981546,49.9479206 L225.981546,76.2996637 L181.739769,76.2996637 L181.739769,49.9479206 Z M181.739769,127.893276 C181.739769,120.419199 191.642921,112.086881 203.860396,112.086881 C216.073169,112.086881 225.981546,120.419199 225.981546,127.893276 L225.981546,166.172025 L181.739769,166.172025 L181.739769,127.893276 Z M181.739769,216.175749 C181.739769,208.704255 191.642921,200.369871 203.860396,200.369871 C216.073169,200.369871 225.981546,208.704255 225.981546,216.175749 L225.981546,261.609771 L181.739769,261.609771 L181.739769,216.175749 Z M181.739769,309.225304 C181.739769,301.75381 191.642921,293.418909 203.860396,293.418909 C216.084142,293.418909 225.981546,301.75381 225.981546,309.225304 L225.981546,380.905146 L181.739769,380.905146 L181.739769,309.225304 Z M167,385 L246,385 L246,0 L167,0 L167,385 Z" id="Fill-14" fill="#399DFF"></path>
                                    <polygon id="Fill-19" fill="#399DFF" points="225 558 245 558 245 391 225 391"></polygon>
                                    <polygon id="Fill-21" fill="#399DFF" points="169 399.222873 232.777584 463 242 453.774516 178.228162 390"></polygon>
                                    <polygon id="Fill-22" fill="#399DFF" points="175.78987 457 226 406.791616 217.215106 398 167 448.212861"></polygon>
                                    <polygon id="Fill-23" fill="#399DFF" points="167 458.220134 230.777518 522 240 512.774642 176.227706 449"></polygon>
                                    <polygon id="Fill-24" fill="#399DFF" points="176.253599 518 237 458.578888 228.096503 448 167 508.872173"></polygon>
                                    <polygon id="Fill-26" fill="#399DFF" points="153 565 180 565 180 398 153 398"></polygon>
                                    <polygon id="Fill-29" fill="#399DFF" points="14 460 19 460 19 411 14 411"></polygon>
                                    <polygon id="Fill-30" fill="#399DFF" points="33 460 38 460 38 411 33 411"></polygon>
                                    <polygon id="Fill-31" fill="#399DFF" points="18 412.65507 36.3506697 431 39 428.34232 20.6550704 410"></polygon>
                                    <polygon id="Fill-32" fill="#399DFF" points="19.6766446 429 35 413.679337 32.3180833 411 17 426.318027"></polygon>
                                    <polygon id="Fill-33" fill="#399DFF" points="18 430.64933 36.3402331 449 39 446.342842 20.6493303 428"></polygon>
                                    <polygon id="Fill-34" fill="#399DFF" points="19.6460034 448 37 431.028422 34.4621665 428 17 445.390211"></polygon>
                                    <polygon id="Fill-35" fill="#399DFF" points="18 456 36 456 36 451 18 451"></polygon>
                                    <polygon id="Fill-36" fill="#399DFF" points="13.6522715 453.708151 9 456.920393 9 463 21 463 21 451"></polygon>
                                    <polygon id="Fill-37" fill="#399DFF" points="40.3356078 453.708151 45 456.920393 45 463 33 463 33 451"></polygon>
                                    <polygon id="Fill-38" fill="#000000" points="131 380 136 380 136 168 131 168"></polygon>
                                    <polygon id="Fill-39" fill="#000000" points="140 384 145 384 145 143 140 143"></polygon>
                                    <polygon id="Fill-40" fill="#000000" points="147 383 152 383 152 83 147 83"></polygon>
                                    <polygon id="Fill-41" fill="#000000" points="155 381 160 381 160 71 155 71"></polygon>
                                    <polygon id="Fill-42" fill="#000000" points="125 389 130 389 130 193 125 193"></polygon>
                                    <polygon id="Fill-43" fill="#000000" points="115 383 120 383 120 225 115 225"></polygon>
                                    <polygon id="Fill-44" fill="#000000" points="108 388 113 388 113 261 108 261"></polygon>
                                    <polygon id="Fill-45" fill="#000000" points="102 396 107 396 107 285 102 285"></polygon>
                                    <polygon id="Fill-46" fill="#000000" points="94 398 99 398 99 293 94 293"></polygon>
                                    <polygon id="Fill-47" fill="#000000" points="87 399 92 399 92 313 87 313"></polygon>
                                    <polygon id="Fill-48" fill="#000000" points="79 396 84 396 84 338 79 338"></polygon>
                                    <polygon id="Fill-49" fill="#000000" points="59 400 64 400 64 364 59 364"></polygon>
                                    <polygon id="Fill-50" fill="#000000" points="50 402 55 402 55 347 50 347"></polygon>
                                    <polygon id="Fill-51" fill="#000000" points="44 398 49 398 49 328 44 328"></polygon>
                                    <polygon id="Fill-52" fill="url(#linearGradient-6)" points="166 156 158 165.737526 158 385 166 385"></polygon>
                                    <polygon id="Fill-53" fill="url(#linearGradient-7)" points="164 407.535126 164 563 137 563 137 542.201837 153.69862 531.219006 154.646754 407"></polygon>
                                    <polyline id="Fill-54" fill="#000000" points="166 0 161 7.89777242 161 385 166 385"></polyline>
                                    <path d="M470.247766,381.185696 C27.5213416,365.413227 4.86216415,413.335751 4.86216415,413.335751 L0.595980471,419.09332 L0,428.509254 C0,428.509254 68.8005038,358.710837 487,464 L487,381.774416 L470.247766,381.185696 Z" id="Fill-55" fill="url(#linearGradient-8)"></path>
                                    <path d="M488,390.923124 C488,390.923124 77.1821994,362.615425 5,412 C5,412 28.1589689,363.049836 488,379.30846 L488,390.923124 Z" id="Fill-56" fill="#399DFF"></path>
                                    <path d="M487,463 L487,449.711618 C487,449.711618 172.923993,366.084399 0.595980471,417.976795 L0.530681741,421.731426 L0,427.417567 C0,427.417567 75.9963201,358.083013 487,463" id="Fill-57" fill="#000000"></path>
                                    <polygon id="Fill-58" fill="#399DFF" points="395 237 400 240.960092 400 390 395 390"></polygon>
                                    <polygon id="Fill-59" fill="#399DFF" points="427 267 432 272.380469 432 397 427 397"></polygon>
                                    <polygon id="Fill-60" fill="#399DFF" points="360 191 365 199.175331 365 387 360 387"></polygon>
                                    <polygon id="Fill-61" fill="#399DFF" points="328 149 333 157.114476 333 386 328 386"></polygon>
                                    <polygon id="Fill-62" fill="#399DFF" points="298 97 303 105.087533 303 387 298 387"></polygon>
                                    <polygon id="Fill-58" fill="#0F2E6B" points="387 361 392 362.915339 392 435 387 435"></polygon>
                                    <polygon id="Fill-59" fill="#0F2E6B" points="421 391 426 392.738305 426 433 421 433"></polygon>
                                    <polygon id="Fill-60" fill="#0F2E6B" points="352 320 357 324.629907 357 431 352 431"></polygon>
                                    <polygon id="Fill-62" fill="#0F2E6B" points="292 232 297 237.159289 297 417 292 417"></polygon>
                                    <polygon id="Fill-62-Copy-2" fill="#0F2E6B" points="333 291 338 294.764886 338 426 333 426"></polygon>
                                    <polygon id="Fill-62-Copy" fill="#0F2E6B" points="246 178 251 184.386363 251 407 246 407"></polygon>
                                    <polygon id="Fill-62-Copy-3" fill="#0F2E6B" points="194 79 199 87.4221899 199 381 194 381"></polygon>
                                    <polygon id="Fill-63" fill="#399DFF" points="272 64 277 72.0552924 277 386 272 386"></polygon>
                                    <polygon id="Fill-64" fill="#399DFF" points="252 27 257 35.0457485 257 385 252 385"></polygon>
                                    <path d="M425.167153,408 L431,402.035573 C429.372241,400.459498 267.217057,241.667076 174.815284,3 L167,5.97757614 C260.092321,246.41985 423.527572,406.415196 425.167153,408" id="Fill-65" fill="#0F2E6B"></path>
                                    <path d="M35,422 C35.024,422.344 35.024,422.684 35.024,423.02 C35.068,423 35.068,422.98 35.112,422.96 C35.068,422.636 35.024,422.324 35,422 Z" id="Stroke-66" stroke="#231F20" stroke-width="0.5"></path>
                                    <path d="M35.756,422 C35.712,422.002385 35.712,422.004771 35.668,422.007156 C36.132,423.744752 35.96,425.721374 35,428 C37.264,425.487595 37.196,423.552004 35.756,422" id="Fill-67" fill="#69BBBA"></path>
                                    <path d="M15,429.504 L15.016,429.48 C15.016,429.316 15.016,429.172 15.036,429 C15.016,429.188 15.016,429.316 15,429.504" id="Fill-68" fill="#004245"></path>
                                </g>
                            </g>
                        </g>
                    </g>
                </g>
            </g>
        </g>
    </g>
</svg>