<?xml version="1.0" encoding="UTF-8"?>
<svg width="18px" height="18px" viewBox="0 0 18 18" version="1.1" xmlns="http://www.w3.org/2000/svg" xmlns:xlink="http://www.w3.org/1999/xlink">
    <!-- Generator: Sketch 51.2 (57519) - http://www.bohemiancoding.com/sketch -->
    <title>Fill 1</title>
    <desc>Created with Sketch.</desc>
    <defs></defs>
    <g id="Page-1" stroke="none" stroke-width="1" fill="none" fill-rule="evenodd">
        <g id="Landing--11" transform="translate(-76.000000, -792.000000)" fill="#FFFFFF" stroke="#FFFFFF" stroke-width="0.72">
            <g id="Page-1" transform="translate(77.000000, 793.000000)">
                <path d="M15.3570909,4.93381818 C15.2141818,4.79309091 14.9836364,4.79490909 14.8429091,4.93854545 C14.7429091,5.04 14.7181818,5.18545455 14.7618182,5.312 L14.7541818,5.31454545 C15.0850909,6.14618182 15.2727273,7.05054545 15.2727273,8 C15.2727273,12.0167273 12.0167273,15.2727273 8,15.2727273 C3.98363636,15.2727273 0.727272727,12.0167273 0.727272727,8 C0.727272727,3.98327273 3.98363636,0.727272727 8,0.727272727 C10.0556364,0.727272727 11.9090909,1.58254545 13.2305455,2.95454545 L13.2352727,2.94981818 C13.3792727,3.07927273 13.5992727,3.07636364 13.7363636,2.93709091 C13.8770909,2.79345455 13.8752727,2.56327273 13.732,2.42254545 C13.7185455,2.40909091 13.7007273,2.40363636 13.6858182,2.39236364 C12.2374545,0.919272727 10.2294545,0 8,0 C3.58145455,0 0,3.58145455 0,8 C0,12.4181818 3.58145455,16 8,16 C12.4181818,16 16,12.4181818 16,8 C16,6.97163636 15.7989091,5.99163636 15.4450909,5.08836364 C15.428,5.03272727 15.4018182,4.97818182 15.3570909,4.93381818 Z M7.63299174,10.0666212 L5.79312397,8.2395303 C5.75722314,8.20387879 5.70763636,8.18181818 5.65289256,8.18181818 C5.54320661,8.18181818 5.45454545,8.27006061 5.45454545,8.37878788 C5.45454545,8.43315152 5.47656198,8.48239394 5.51266116,8.51824242 L7.49613223,10.4877424 C7.53203306,10.5235909 7.58142149,10.5454545 7.63636364,10.5454545 C7.69289256,10.5454545 7.74307438,10.5216212 7.77917355,10.483803 L7.7797686,10.4845909 L11.0917686,7.03880303 C11.0917686,7.03919697 11.0923636,7.03959091 11.092562,7.03998485 L11.3758017,6.74492424 C11.3756033,6.74492424 11.375405,6.74433333 11.3752066,6.74393939 L11.9450579,6.15106061 L11.9444628,6.1504697 C11.9783802,6.11521212 12,6.06774242 12,6.01515152 C12,5.90642424 11.9111405,5.81818182 11.8016529,5.81818182 C11.7449256,5.81818182 11.6947438,5.84221212 11.6586446,5.87963636 L11.6582479,5.87904545 L11.1484959,6.40948485 C11.1480992,6.40889394 11.1477025,6.4085 11.1473058,6.40790909 L10.8706116,6.69587879 C10.8710083,6.69666667 10.8712066,6.69706061 10.8716033,6.69745455 L7.63299174,10.0666212 Z" id="Fill-1"></path>
            </g>
        </g>
    </g>
</svg>