<?xml version="1.0" encoding="UTF-8"?>
<svg width="26px" height="27px" viewBox="0 0 26 27" version="1.1" xmlns="http://www.w3.org/2000/svg" xmlns:xlink="http://www.w3.org/1999/xlink">
    <!-- Generator: Sketch 51.2 (57519) - http://www.bohemiancoding.com/sketch -->
    <title>super g</title>
    <desc>Created with Sketch.</desc>
    <defs></defs>
    <g id="Page-1" stroke="none" stroke-width="1" fill="none" fill-rule="evenodd">
        <g id="login" transform="translate(-1492.000000, -185.000000)">
            <g id="Group-11" transform="translate(1277.000000, 93.000000)">
                <g id="Google" transform="translate(199.000000, 76.000000)">
                    <g id="super-g" transform="translate(16.442623, 16.716667)">
                        <path d="M12.5737705,4.94288889 C14.9348452,4.94288889 16.5275228,5.97975926 17.4356284,6.84618519 L20.9842259,3.32366667 C18.8047723,1.26412963 15.9686885,0 12.5737705,0 C7.65602914,0 3.40888889,2.86914815 1.34120219,7.04503704 L5.40672131,10.2550741 C6.42659381,7.17287037 9.24870674,4.94288889 12.5737705,4.94288889 L12.5737705,4.94288889 Z" id="Shape" fill="#399DFF"></path>
                        <path d="M24.6445902,13.0674074 C24.6445902,12.0163333 24.560765,11.2493333 24.3791439,10.4539259 L12.5737705,10.4539259 L12.5737705,15.197963 L19.5033151,15.197963 C19.3636066,16.3768704 18.6091803,18.1523333 16.9326776,19.3454444 L20.9004007,22.4702593 C23.2754463,20.2402778 24.6445902,16.9592222 24.6445902,13.0674074 L24.6445902,13.0674074 Z" id="Shape" fill="#399DFF"></path>
                        <path d="M5.42069217,15.3115926 C5.1552459,14.5161852 5.00156648,13.663963 5.00156648,12.7833333 C5.00156648,11.9027037 5.1552459,11.0504815 5.40672131,10.2550741 L1.34120219,7.04503704 C0.488979964,8.77788889 0,10.7237963 0,12.7833333 C0,14.8428704 0.488979964,16.7887778 1.34120219,18.5216296 L5.42069217,15.3115926 L5.42069217,15.3115926 Z" id="Shape" fill="#399DFF"></path>
                        <path d="M12.5737705,25.5666667 C15.9686885,25.5666667 18.8187432,24.4303704 20.9004007,22.4702593 L16.9326776,19.3454444 C15.8708925,20.0982407 14.4458652,20.6237778 12.5737705,20.6237778 C9.24870674,20.6237778 6.42659381,18.3937963 5.42069217,15.3115926 L1.35517304,18.5216296 C3.42285974,22.6975185 7.65602914,25.5666667 12.5737705,25.5666667 L12.5737705,25.5666667 Z" id="Shape" fill="#399DFF"></path>
                        <polygon id="Shape" points="0 0 25.147541 0 25.147541 25.5666667 0 25.5666667"></polygon>
                    </g>
                </g>
            </g>
        </g>
    </g>
</svg>