<?xml version="1.0" encoding="UTF-8"?>
<svg width="32px" height="31px" viewBox="0 0 32 31" version="1.1" xmlns="http://www.w3.org/2000/svg" xmlns:xlink="http://www.w3.org/1999/xlink">
    <!-- Generator: Sketch 51.2 (57519) - http://www.bohemiancoding.com/sketch -->
    <title>LinkedIN_Color</title>
    <desc>Created with Sketch.</desc>
    <defs></defs>
    <g id="Page-1" stroke="none" stroke-width="1" fill="none" fill-rule="evenodd">
        <g id="login" transform="translate(-1574.000000, -183.000000)" fill="#3796F8">
            <g id="Group-11" transform="translate(1277.000000, 93.000000)">
                <g id="LinkedIN" transform="translate(284.000000, 76.000000)">
                    <path d="M20.4939882,24.4331885 L20.4939882,44.5198755 L13.921954,44.5198755 L13.921954,24.4331885 L20.4939882,24.4331885 Z M20.926839,18.2195659 C20.926839,20.148258 19.4996652,21.6915316 17.2081024,21.6915316 L17.1661035,21.6915316 C14.9597196,21.6915316 13.5333333,20.148258 13.5333333,18.2195659 C13.5333333,16.250079 15.0031622,14.75 17.2514137,14.75 C19.4996652,14.75 20.8841839,16.250079 20.926839,18.2195659 Z M44.1952576,33.0027831 L44.1949951,44.5198755 L37.6232234,44.5198755 L37.6232234,33.7734867 C37.6232234,31.0742244 36.6722117,29.2323215 34.2931075,29.2323215 C32.4774443,29.2323215 31.3959736,30.4740328 30.9209928,31.6733494 C30.7472225,32.1031623 30.7045674,32.7020207 30.7045674,33.3023456 L30.7045674,44.5204088 L24.1317458,44.5204088 C24.1317458,44.5204088 24.2183684,26.3185527 24.1317458,24.4337218 L30.7045674,24.4337218 L30.7045674,27.2788325 C31.5768312,25.911137 33.1390576,23.9615142 36.6283754,23.9615142 C40.9530768,23.9615142 44.1952576,26.8330216 44.1952576,33.0027831 Z" id="Shape"></path>
                </g>
            </g>
        </g>
    </g>
</svg>