<svg id="Layer_1" data-name="Layer 1" xmlns="http://www.w3.org/2000/svg" viewBox="0 0 263.25 30.72"><defs><style>.cls-1{isolation:isolate;}.cls-2{fill:#ccd9f2;}.cls-3{fill:#2198fc;}</style></defs><title>logo3</title><g id="Symbols"><g id="_01-copy-15" data-name="01-copy-15"><g id="Group-5"><g id="LOGO-Copy"><g id="Group-9"><g id="PLATOTRADE" class="cls-1"><g class="cls-1"><path class="cls-2" d="M1.2,32V2.31H12.4a26.73,26.73,0,0,1,4.51.29A9,9,0,0,1,20.58,4,7.38,7.38,0,0,1,23,6.85a9.11,9.11,0,0,1,.9,4.05,9.12,9.12,0,0,1-2.41,6.41Q19,19.93,12.74,19.93H5.13V32ZM5.13,16.43H12.8q3.81,0,5.41-1.42a5,5,0,0,0,1.6-4,5.37,5.37,0,0,0-.94-3.19,4.43,4.43,0,0,0-2.48-1.75,16.61,16.61,0,0,0-3.67-.26H5.13Z" transform="translate(-1.2 -1.79)"/><path class="cls-2" d="M28.7,32V2.31h3.93V28.5H47.25V32Z" transform="translate(-1.2 -1.79)"/><path class="cls-2" d="M48.67,32,60.07,2.31H64.3L76.45,32H72l-3.46-9H56.1l-3.26,9Zm8.56-12.19H67.3l-3.1-8.22q-1.43-3.75-2.11-6.16a37.47,37.47,0,0,1-1.6,5.67Z" transform="translate(-1.2 -1.79)"/><path class="cls-2" d="M84.06,32V5.82H74.28V2.31H97.81V5.82H88V32Z" transform="translate(-1.2 -1.79)"/><path class="cls-2" d="M99.9,17.54q0-7.39,4-11.57a13.47,13.47,0,0,1,10.24-4.18,14.2,14.2,0,0,1,7.41,2,12.84,12.84,0,0,1,5,5.48,17.85,17.85,0,0,1,1.73,8,17.57,17.57,0,0,1-1.82,8.08,12.48,12.48,0,0,1-5.17,5.39,14.68,14.68,0,0,1-7.21,1.84,14,14,0,0,1-7.49-2,13,13,0,0,1-5-5.53A16.63,16.63,0,0,1,99.9,17.54Zm4,.06q0,5.37,2.88,8.46a10.09,10.09,0,0,0,14.54,0q2.86-3.12,2.87-8.85A15.15,15.15,0,0,0,123,10.85a9.38,9.38,0,0,0-3.58-4.19,9.74,9.74,0,0,0-5.3-1.49A10,10,0,0,0,107,8Q103.95,10.9,104,17.6Z" transform="translate(-1.2 -1.79)"/></g><g class="cls-1"><path class="cls-3" d="M136.88,32V5.82h-9.79V2.31h23.53V5.82H140.8V32Z" transform="translate(-1.2 -1.79)"/><path class="cls-3" d="M154.71,32V2.31h13.17a17.6,17.6,0,0,1,6,.8,6.61,6.61,0,0,1,3.3,2.83,8.36,8.36,0,0,1,1.24,4.47,7.45,7.45,0,0,1-2,5.33q-2,2.16-6.32,2.75A10.4,10.4,0,0,1,172.45,20a20,20,0,0,1,3.26,4L180.88,32h-4.94L172,25.82c-1.15-1.78-2.09-3.14-2.84-4.09a8.92,8.92,0,0,0-2-2,6,6,0,0,0-1.79-.79,11.45,11.45,0,0,0-2.19-.14h-4.56V32Zm3.93-16.58h8.45a12.68,12.68,0,0,0,4.21-.56,4.54,4.54,0,0,0,2.31-1.78,4.9,4.9,0,0,0,.79-2.67A4.43,4.43,0,0,0,172.87,7,7.18,7.18,0,0,0,168,5.59h-9.4Z" transform="translate(-1.2 -1.79)"/><path class="cls-3" d="M181.34,32l11.4-29.69H197L209.13,32h-4.48l-3.46-9H188.78l-3.26,9Zm8.57-12.19H200l-3.09-8.22q-1.42-3.75-2.11-6.16a37.47,37.47,0,0,1-1.6,5.67Z" transform="translate(-1.2 -1.79)"/><path class="cls-3" d="M212.27,32V2.31h10.22a25.05,25.05,0,0,1,5.29.43,10,10,0,0,1,4.35,2.13,12,12,0,0,1,3.51,5.07A19.83,19.83,0,0,1,236.81,17a21,21,0,0,1-.79,6,14.46,14.46,0,0,1-2,4.32,10.8,10.8,0,0,1-2.7,2.7,11,11,0,0,1-3.54,1.48A20.16,20.16,0,0,1,223,32Zm3.92-3.5h6.34a15.51,15.51,0,0,0,4.61-.55,6.56,6.56,0,0,0,2.66-1.54A9.34,9.34,0,0,0,232,22.65a18.34,18.34,0,0,0,.78-5.72,13.77,13.77,0,0,0-1.53-7.15,7.72,7.72,0,0,0-3.72-3.36,15.49,15.49,0,0,0-5.08-.6h-6.24Z" transform="translate(-1.2 -1.79)"/><path class="cls-3" d="M242.3,32V2.31h21.46V5.82H246.22v9.09h16.43v3.48H246.22V28.5h18.23V32Z" transform="translate(-1.2 -1.79)"/></g></g></g></g></g></g></g></svg>