<svg id="Layer_1" data-name="Layer 1" xmlns="http://www.w3.org/2000/svg" viewBox="0 0 276 27.93"><defs><style>.cls-1{fill:#ccd9f1;}.cls-2{fill:#2198fc;}</style></defs><title>logo1</title><g id="Symbols"><g id="logo"><g id="Page-1"><path id="Fill-1" class="cls-1" d="M11.52,16.83a5.4,5.4,0,0,0,4.06-1.54,5.33,5.33,0,0,0,1.5-3.87A5.21,5.21,0,0,0,11.56,6H5.68V16.83ZM0,1H11.24q5.6,0,8.68,2.94A9.9,9.9,0,0,1,23,11.42a9.9,9.9,0,0,1-3.08,7.48c-2.06,2-5,2.93-8.72,2.93H5.68V28H0Z" transform="translate(0 -0.07)"/><polygon id="Fill-3" class="cls-1" points="28 0.93 33.72 0.93 33.72 22.93 49 22.93 49 27.93 28 27.93 28 0.93"/><path id="Fill-5" class="cls-1" d="M71.31,19.12l-2.15-5-2.68-7c-.94,2.77-1.82,5.11-2.64,7l-2.15,5ZM63.63,1h5.74L81,28H75.1l-1.86-4.29H59.71L57.9,28H52Z" transform="translate(0 -0.07)"/><polygon id="Fill-7" class="cls-1" points="87.1 5.93 78 5.93 78 0.93 102 0.93 102 5.93 92.9 5.93 92.9 27.93 87.1 27.93 87.1 5.93"/><g id="Group-11"><path id="Fill-9" class="cls-1" d="M112.82,20.15a7.55,7.55,0,0,0,5.82,2.55,7.42,7.42,0,0,0,5.76-2.55A8.81,8.81,0,0,0,126.71,14a8.76,8.76,0,0,0-2.31-6.09,7.42,7.42,0,0,0-5.76-2.55,7.55,7.55,0,0,0-5.82,2.55A8.77,8.77,0,0,0,110.5,14a8.82,8.82,0,0,0,2.32,6.14m-4.31-16A14.11,14.11,0,0,1,132.71,14a14.11,14.11,0,1,1-28.22,0,13.51,13.51,0,0,1,4-9.89" transform="translate(0 -0.07)"/></g><polygon id="Fill-12" class="cls-2" points="148.1 5.93 139 5.93 139 0.93 163 0.93 163 5.93 153.9 5.93 153.9 27.93 148.1 27.93 148.1 5.93"/><path id="Fill-14" class="cls-2" d="M177.71,16.83a5.64,5.64,0,0,0,4.16-1.54,5.25,5.25,0,0,0,1.55-3.87,5.28,5.28,0,0,0-1.53-3.88A5.56,5.56,0,0,0,177.75,6h-6V16.83ZM166,1h11.46q5.72,0,8.86,2.94a9.81,9.81,0,0,1,3.14,7.48,9.93,9.93,0,0,1-1.32,5,10.21,10.21,0,0,1-3.73,3.71L190,28h-7.08l-4.14-6.25c-.91.06-2.2.08-3.88.08h-3.11V28H166Z" transform="translate(0 -0.07)"/><path id="Fill-16" class="cls-2" d="M211.31,19.12l-2.15-5-2.68-7c-.94,2.77-1.82,5.11-2.64,7l-2.15,5ZM203.63,1h5.74L221,28h-5.9l-1.86-4.29H199.71L197.9,28H192Z" transform="translate(0 -0.07)"/><path id="Fill-18" class="cls-2" d="M234.52,23a8.2,8.2,0,0,0,6.13-2.39A8.43,8.43,0,0,0,243,14.5a8.39,8.39,0,0,0-2.33-6.1A8.17,8.17,0,0,0,234.52,6h-4.74V23ZM224,1h10.69a14.1,14.1,0,0,1,10.37,3.9A12.94,12.94,0,0,1,249,14.5a12.94,12.94,0,0,1-3.94,9.6A14.1,14.1,0,0,1,234.69,28H224Z" transform="translate(0 -0.07)"/><polygon id="Fill-20" class="cls-2" points="254 0.93 275.45 0.93 275.45 5.93 259.88 5.93 259.88 11.43 274.66 11.43 274.66 16.39 259.88 16.39 259.88 22.93 276 22.93 276 27.93 254 27.93 254 0.93"/></g></g></g></svg>