<?xml version="1.0" encoding="UTF-8"?>
<svg width="14px" height="14px" viewBox="0 0 14 14" version="1.1" xmlns="http://www.w3.org/2000/svg" xmlns:xlink="http://www.w3.org/1999/xlink">
    <!-- Generator: Sketch 51.2 (57519) - http://www.bohemiancoding.com/sketch -->
    <title>Skype-color</title>
    <desc>Created with Sketch.</desc>
    <defs></defs>
    <g id="Symbols" stroke="none" stroke-width="1" fill="none" fill-rule="evenodd">
        <g id="futer" transform="translate(-353.000000, -106.000000)" fill="#00AEF3">
            <g id="Group-2" transform="translate(353.000000, 49.000000)">
                <g id="Group-7">
                    <g id="Group">
                        <path d="M13.5974835,65.4861763 C13.855127,65.9973918 14,66.572712 14,67.1821133 C14,69.2902684 12.2664628,71 10.1279398,71 C9.46531044,71 8.84301505,70.835275 8.29727187,70.5463977 C7.9005174,70.6186171 7.49223895,70.6567553 7.07408278,70.6567553 C3.3864064,70.6567553 0.396754468,67.7095578 0.396754468,64.0726251 C0.396754468,63.6198342 0.443673565,63.1767808 0.531749765,62.7499565 C0.194261524,62.1819394 0,61.5230395 0,60.8186982 C0,58.7089202 1.73353716,57 3.87288335,57 C4.62935089,57 5.33560677,57.2150351 5.93238476,57.5858691 C6.30444497,57.5225758 6.68555974,57.4893062 7.07408278,57.4893062 C10.7625823,57.4893062 13.7514111,60.4373152 13.7514111,64.0726251 C13.7514111,64.557874 13.69873,65.0301397 13.5974835,65.4861763 Z M10.4991769,67.2194401 C10.8086783,66.7869356 10.9667215,66.2927607 10.9667215,65.75071 C10.9667215,65.2971077 10.8753528,64.9076103 10.6950847,64.5903321 C10.5148166,64.2754883 10.2621119,64.0125775 9.94273283,63.8072799 C9.62829257,63.6052281 9.24470837,63.4332 8.79938852,63.2936301 C8.36065381,63.1548716 7.86429915,63.0258506 7.32349483,62.9122471 C6.8962841,62.8148728 6.58513641,62.7394076 6.39992944,62.6882861 C6.21883819,62.6395989 6.03774694,62.5698139 5.86241769,62.4829885 C5.69285042,62.3985973 5.55867827,62.2996001 5.46484008,62.1843737 C5.37429445,62.0772619 5.33066792,61.9514867 5.33066792,61.8021793 C5.33066792,61.5571205 5.46648636,61.3502 5.74470837,61.1708688 C6.03363123,60.9834232 6.42380056,60.8892946 6.90122295,60.8892946 C7.41733302,60.8892946 7.79186265,60.9736857 8.01658043,61.142468 C8.24788335,61.3161189 8.44955315,61.5619892 8.61582785,61.8735872 C8.7598777,62.1170231 8.88993415,62.2874283 9.01505174,62.3969744 C9.14840075,62.5138237 9.34266228,62.5738712 9.58960489,62.5738712 C9.86124177,62.5738712 10.0925447,62.4789312 10.2752822,62.2906741 C10.4571966,62.1048513 10.5493885,61.8906277 10.5493885,61.6553063 C10.5493885,61.4110589 10.4785983,61.158697 10.3403104,60.9047122 C10.2036689,60.6531618 9.98471308,60.4121602 9.69085136,60.1849533 C9.39945908,59.9601808 9.02904516,59.7784153 8.58866416,59.6437141 C8.15075259,59.5090129 7.6264111,59.4408509 7.03045626,59.4408509 C6.28386642,59.4408509 5.62535278,59.543094 5.07137817,59.7451458 C4.50917215,59.9488205 4.07290687,60.2490581 3.77492944,60.6328754 C3.47365945,61.0191271 3.32137817,61.4678607 3.32137817,61.9644699 C3.32137817,62.4862343 3.46707432,62.9300991 3.75352775,63.2847041 C4.03586548,63.6328175 4.4219191,63.9111459 4.90098777,64.1115748 C5.36853246,64.3087579 5.95707902,64.4815974 6.65098777,64.627659 C7.1605127,64.7331479 7.57208373,64.8345795 7.87582314,64.9270851 C8.16639229,65.0179679 8.40592662,65.1478004 8.58866416,65.3149597 C8.76152399,65.4756274 8.84630762,65.6801136 8.84630762,65.9389671 C8.84630762,66.2684171 8.68497178,66.5378195 8.35159925,66.7609691 C8.01164158,66.9897989 7.55891345,67.1066481 7.00658514,67.1066481 C6.60571496,67.1066481 6.27892756,67.0482235 6.0369238,66.936243 C5.79656632,66.823451 5.60806679,66.6798238 5.47636406,66.5077957 C5.34054563,66.3317104 5.21213547,66.1061265 5.09360301,65.838347 C4.98741769,65.5940996 4.85571496,65.4034081 4.70178739,65.2743871 C4.54127469,65.1404973 4.34289746,65.0731467 4.11406397,65.0731467 C3.83419567,65.0731467 3.59960019,65.1583493 3.41686265,65.3287544 C3.23247883,65.499971 3.13864064,65.7093259 3.13864064,65.949516 C3.13864064,66.3365791 3.28186736,66.7366255 3.56585136,67.1391062 C3.8465428,67.5399641 4.21613358,67.8629224 4.664746,68.1014896 C5.29280339,68.4301281 6.09701317,68.596476 7.05597366,68.596476 C7.85524459,68.596476 8.55656162,68.4739466 9.14181562,68.2337564 C9.73447789,67.9919434 10.1904986,67.6511331 10.4991769,67.2194401 Z" id="Skype"></path>
                    </g>
                </g>
            </g>
        </g>
    </g>
</svg>