<?xml version="1.0" encoding="UTF-8"?>
<svg width="1900px" height="634px" viewBox="0 0 1900 634" version="1.1" xmlns="http://www.w3.org/2000/svg" xmlns:xlink="http://www.w3.org/1999/xlink">
    <!-- Generator: Sketch 51.2 (57519) - http://www.bohemiancoding.com/sketch -->
    <title>Group 9</title>
    <desc>Created with Sketch.</desc>
    <defs>
        <polygon id="path-1" points="2.27373675e-13 676.08 2.27373675e-13 0 1393.2 0 1393.2 676.08"></polygon>
        <polygon id="path-3" points="0 87.48 0 0 222.48 0 222.48 87.48"></polygon>
        <linearGradient x1="50%" y1="-19.7284129%" x2="50%" y2="90.3554264%" id="linearGradient-5">
            <stop stop-color="#05223F" offset="0%"></stop>
            <stop stop-color="#3C79FE" offset="100%"></stop>
        </linearGradient>
        <polygon id="path-6" points="0 145.8 0 0 374.76 0 374.76 145.8"></polygon>
        <linearGradient x1="50%" y1="-19.7284129%" x2="50%" y2="90.3554264%" id="linearGradient-8">
            <stop stop-color="#05223F" offset="0%"></stop>
            <stop stop-color="#3C79FE" stop-opacity="0.332908741" offset="100%"></stop>
        </linearGradient>
        <polygon id="path-9" points="0 179.28 0 0 455.76 0 455.76 179.28"></polygon>
        <polygon id="path-11" points="0 270 0 0 659.88 0 659.88 270"></polygon>
        <polygon id="path-13" points="623.16 559.44 623.16 443.88 934.2 443.88 934.2 559.44"></polygon>
        <radialGradient cx="44.4857108%" cy="50%" fx="44.4857108%" fy="50%" r="58.9705664%" gradientTransform="translate(0.444857,0.500000),scale(0.945794,1.000000),rotate(91.398389),translate(-0.444857,-0.500000)" id="radialGradient-15">
            <stop stop-color="#8DE8FF" offset="0%"></stop>
            <stop stop-color="#73A2F7" offset="100%"></stop>
        </radialGradient>
        <ellipse id="path-16" cx="1146.38953" cy="769.66" rx="216.389526" ry="204.66"></ellipse>
        <filter x="-36.9%" y="-39.0%" width="173.7%" height="177.9%" filterUnits="objectBoundingBox" id="filter-17">
            <feOffset dx="0" dy="0" in="SourceAlpha" result="shadowOffsetOuter1"></feOffset>
            <feGaussianBlur stdDeviation="59.5" in="shadowOffsetOuter1" result="shadowBlurOuter1"></feGaussianBlur>
            <feColorMatrix values="0 0 0 0 0.0117647059   0 0 0 0 0.662745098   0 0 0 0 0.956862745  0 0 0 1 0" type="matrix" in="shadowBlurOuter1"></feColorMatrix>
        </filter>
        <polygon id="path-18" points="246 0 167 0 167 385 246 385 246 0"></polygon>
        <linearGradient x1="50%" y1="-19.7284129%" x2="50%" y2="91.6694964%" id="linearGradient-20">
            <stop stop-color="#05223F" offset="0%"></stop>
            <stop stop-color="#061943" offset="100%"></stop>
        </linearGradient>
        <linearGradient x1="50%" y1="-19.7284129%" x2="50%" y2="93.5615765%" id="linearGradient-21">
            <stop stop-color="#05223F" offset="0%"></stop>
            <stop stop-color="#05163B" offset="100%"></stop>
        </linearGradient>
        <linearGradient x1="50%" y1="-19.7284129%" x2="50%" y2="93.5615765%" id="linearGradient-22">
            <stop stop-color="#05223F" offset="0%"></stop>
            <stop stop-color="#2B65E1" offset="100%"></stop>
        </linearGradient>
        <polygon id="path-23" points="0 186.27732 0 0 473.26788 0 473.26788 186.27732"></polygon>
        <polygon id="path-25" points="0 303.48 0 0 771.12 0 771.12 303.48"></polygon>
    </defs>
    <g id="Page-1" stroke="none" stroke-width="1" fill="none" fill-rule="evenodd">
        <g id="Landing--11" transform="translate(0.000000, -466.000000)">
            <g id="Group-9">
                <g transform="translate(-264.000000, -2.000000)" id="Group-5">
                    <g>
                        <g id="Group-7">
                            <g id="Page-1-Copy-5" transform="translate(262.320000, 0.000000)">
                                <g id="Page-1-Copy-6">
                                    <g transform="translate(0.000000, 285.000000)">
                                        <mask id="mask-2" fill="white">
                                            <use xlink:href="#path-1"></use>
                                        </mask>
                                        <g id="Clip-2"></g>
                                        <g id="Group-4" mask="url(#mask-2)">
                                            <g transform="translate(-160.271146, 422.280000)">
                                                <g id="Page-1-Copy-3" transform="translate(625.320000, 180.360000)">
                                                    <mask id="mask-4" fill="white">
                                                        <use xlink:href="#path-3"></use>
                                                    </mask>
                                                    <g id="Clip-2"></g>
                                                    <path d="M221.85054,77.3637548 C220.536612,72.5789222 218.911972,67.3584131 214.7138,64.7068226 C212.506827,63.3125566 209.862725,62.8312331 207.294778,62.3565031 C206.242316,62.1622492 205.192392,61.9568372 204.141453,61.7559898 C204.187146,61.2782166 204.212531,60.7943571 204.212531,60.3044114 C204.212531,51.9809125 197.457581,45.2327465 189.125714,45.2327465 C184.426442,45.2327465 180.230301,47.3791755 177.463335,50.7433683 C175.103545,45.4959782 169.830064,41.8396438 163.698062,41.8396438 C162.525275,41.8396438 161.38498,41.9781067 160.288856,42.2306875 C160.291394,42.1003396 160.29901,41.9710061 160.29901,41.8396438 C160.29901,29.3374046 150.153638,19.2022222 137.638323,19.2022222 C136.593984,19.2022222 135.567414,19.2788079 134.560645,19.4157493 C129.258225,7.95578598 117.657277,0 104.190024,0 C92.5124139,0 82.2380868,5.98230879 76.2553487,15.0422479 C65.8038342,15.2735266 57.1008389,22.5689509 54.7415565,32.3419995 C51.0581922,29.7548221 46.5726617,28.2312227 41.7281872,28.2312227 C29.3453815,28.2312227 19.2888577,38.155414 19.0776545,50.4755719 C12.1216552,53.4492282 5.81043517,58.4668612 4.97425309,65.7338828 C4.62140151,68.7973118 5.16260983,72.362352 2.98203785,74.5452987 C2.06411605,75.4648346 0.723787758,76.0374524 0.209995245,77.230871 C-0.856682688,79.7064665 2.35756671,81.7808746 4.95496048,82.5086925 C37.9300827,91.7476698 72.9400669,85.5533555 107.156516,84.0982267 C126.284118,83.2846936 145.439643,83.979037 164.571814,84.6733805 C170.697723,84.896037 176.824141,85.1181863 182.95005,85.3403356 C188.836325,85.5543699 194.7226,85.767897 200.608875,85.9814241 C206.016897,86.1777067 211.425426,86.3744965 216.833448,86.5707791 C217.969173,86.6118615 219.157191,86.6428001 220.181222,86.1498112 C223.113698,84.738808 222.7116,80.499712 221.85054,77.3637548" id="Fill-1" fill="url(#linearGradient-5)" mask="url(#mask-4)"></path>
                                                </g>
                                                <g id="Page-1-Copy-8" opacity="0.298099347" transform="translate(206.280000, 16.200000)">
                                                    <mask id="mask-7" fill="white">
                                                        <use xlink:href="#path-6"></use>
                                                    </mask>
                                                    <g id="Clip-2"></g>
                                                    <path d="M373.699697,128.939591 C371.48643,120.96487 368.749778,112.264022 361.6781,107.844704 C357.96053,105.520928 353.506629,104.718722 349.18101,103.927505 C347.408173,103.603749 345.639612,103.261395 343.86934,102.92665 C343.946309,102.130361 343.989069,101.323929 343.989069,100.507352 C343.989069,86.6348541 332.610585,75.3879108 318.575839,75.3879108 C310.660075,75.3879108 303.591817,78.9652925 298.930957,84.5722805 C294.955971,75.8266303 286.072972,69.7327397 275.743823,69.7327397 C273.768302,69.7327397 271.847515,69.9635112 270.001131,70.3844791 C270.005407,70.1672326 270.018235,69.9516768 270.018235,69.7327397 C270.018235,48.8956743 252.928701,32.0037036 231.847078,32.0037036 C230.087924,32.0037036 228.358702,32.1313465 226.662834,32.3595821 C217.731087,13.2596433 198.189686,0 175.504555,0 C155.834018,0 138.527263,9.97051464 128.449544,25.0704132 C110.844323,25.4558777 96.1844228,37.6149182 92.2102917,53.9033325 C86.0057897,49.5913702 78.450066,47.0520378 70.2897134,47.0520378 C49.431298,47.0520378 32.4914254,63.5923566 32.1356607,84.1259531 C20.4185164,89.082047 9.7874806,97.4447686 8.3789603,109.556471 C7.7845938,114.662186 8.69624083,120.60392 5.02314143,124.242165 C3.47693335,125.774724 1.21919588,126.729087 0.353729855,128.718118 C-1.44305288,132.844111 3.97124102,136.301458 8.34646256,137.514488 C63.8919354,152.912783 122.865064,142.588926 180.50151,140.163711 C212.721305,138.807823 244.988136,139.965062 277.215628,141.122301 C287.534515,141.493395 297.854256,141.863644 308.173143,142.233893 C318.088373,142.590616 328.003603,142.946495 337.918834,143.302373 C347.028462,143.629511 356.138946,143.957494 365.248575,144.284632 C367.161665,144.353103 369.162841,144.404667 370.887787,143.583019 C375.827443,141.231347 375.150122,134.166187 373.699697,128.939591" id="Fill-1" fill="url(#linearGradient-8)" mask="url(#mask-7)"></path>
                                                </g>
                                                <g id="Page-1-Copy-2" opacity="0.507520989" transform="translate(344.520000, 90.720000)">
                                                    <mask id="mask-10" fill="white">
                                                        <use xlink:href="#path-9"></use>
                                                    </mask>
                                                    <g id="Clip-2"></g>
                                                    <path d="M411.270524,158.547942 C408.578886,148.741989 405.250739,138.043168 396.6506,132.609044 C392.12952,129.751659 386.712961,128.765243 381.45241,127.79234 C379.296394,127.394239 377.14558,126.973271 374.992685,126.561658 C375.086289,125.582518 375.138291,124.590905 375.138291,123.586818 C375.138291,106.528784 361.300481,92.6992088 344.232288,92.6992088 C334.605624,92.6992088 326.009645,97.0980634 320.341395,103.992582 C315.507262,93.2386713 304.704305,85.7454428 292.142632,85.7454428 C289.740126,85.7454428 287.404183,86.0292064 285.158724,86.546841 C285.163924,86.2797083 285.179525,86.0146544 285.179525,85.7454428 C285.179525,60.1235699 264.396288,39.3527022 238.758118,39.3527022 C236.618743,39.3527022 234.515771,39.5096557 232.45336,39.790301 C221.591121,16.3044503 197.826073,0 170.237817,0 C146.315722,0 125.268314,12.2600402 113.012413,30.8273229 C91.6020292,31.3013015 73.7735631,46.252418 68.94047,66.2811348 C61.3949373,60.9790182 52.2061322,57.8565798 42.2820146,57.8565798 C16.9152961,57.8565798 -3.68593225,78.1950459 -4.11859133,103.443765 C-18.3682596,109.537924 -31.2970697,119.820975 -33.0100252,134.713883 C-33.7328571,140.992022 -32.6241682,148.298153 -37.0911652,152.771847 C-38.9715681,154.656328 -41.7172892,155.829841 -42.7698156,158.275612 C-44.9549519,163.349055 -38.3704216,167.600311 -33.049547,169.091888 C34.5014315,188.026089 106.220914,175.331568 176.314804,172.349452 C215.498532,170.682212 254.739462,172.105187 293.932551,173.528162 C306.481744,173.984471 319.031977,174.43974 331.581171,174.895009 C343.639462,175.333647 355.697754,175.771246 367.756046,176.208844 C378.834614,176.611103 389.914223,177.0144 400.992791,177.416658 C403.319374,177.500852 405.753081,177.564257 407.850853,176.553934 C413.858158,173.662248 413.034442,164.974718 411.270524,158.547942" id="Fill-1" fill="url(#linearGradient-5)" mask="url(#mask-10)"></path>
                                                </g>
                                                <g id="Page-1-Copy-7" opacity="0.507520989" transform="translate(-0.000000, 0.000000)">
                                                    <mask id="mask-12" fill="white">
                                                        <use xlink:href="#path-11"></use>
                                                    </mask>
                                                    <g id="Clip-2"></g>
                                                    <path d="M658.01301,238.777021 C654.115875,224.009019 649.29716,207.896337 636.845299,199.712415 C630.299377,195.409125 622.456918,193.923559 614.840337,192.458343 C611.718713,191.858794 608.604619,191.224806 605.487513,190.604907 C605.623039,189.130298 605.698331,187.636905 605.698331,186.124726 C605.698331,160.434915 585.663019,139.607242 560.950541,139.607242 C547.012408,139.607242 534.566571,146.232023 526.359697,156.615334 C519.360514,140.419686 503.719267,129.134703 485.53163,129.134703 C482.05312,129.134703 478.670985,129.562058 475.419858,130.341628 C475.427387,129.93932 475.449975,129.540142 475.449975,129.134703 C475.449975,90.547545 445.358607,59.2661178 408.237938,59.2661178 C405.140408,59.2661178 402.095583,59.5024935 399.109485,59.9251521 C383.382405,24.554895 348.973769,0 309.029635,0 C274.393616,0 243.919762,18.463916 226.174845,46.426691 C195.17545,47.1405143 169.362197,69.657256 162.364519,99.8209862 C151.439589,91.8358708 138.135419,87.1334034 123.766614,87.1334034 C87.0389714,87.1334034 57.2111265,117.763623 56.5846936,155.788802 C35.9530648,164.966754 17.2338635,180.453275 14.7537312,202.882354 C13.7071666,212.337382 15.312401,223.340592 8.84478217,230.078082 C6.12220829,232.916156 2.14676854,234.683495 0.622849975,238.366886 C-2.54093749,246.007613 6.99258865,252.410107 14.696509,254.656458 C112.501362,283.17182 216.341655,264.053566 317.828307,259.562428 C374.561145,257.051523 431.376805,259.194559 488.123195,261.337594 C506.292762,262.024805 524.463834,262.710452 542.633401,263.396098 C560.092207,264.056697 577.551013,264.715731 595.00982,265.374766 C611.050117,265.980576 627.091919,266.587952 643.132217,267.193763 C646.500799,267.32056 650.024485,267.41605 653.061781,265.894479 C661.759561,261.539531 660.566929,248.455901 658.01301,238.777021" id="Fill-1" fill="url(#linearGradient-5)" mask="url(#mask-12)"></path>
                                                </g>
                                            </g>
                                        </g>
                                        <path d="M1537.8117,643.98336 C1535.33125,635.215807 1532.26424,625.649936 1524.33889,620.791258 C1520.17254,618.236455 1515.18098,617.354496 1510.33318,616.484617 C1508.34634,616.128674 1506.36428,615.752284 1504.3803,615.384259 C1504.46656,614.508805 1504.51449,613.622198 1504.51449,612.724439 C1504.51449,597.472762 1491.76242,585.107668 1476.03344,585.107668 C1467.16211,585.107668 1459.24059,589.040707 1454.01708,595.205132 C1449.56225,585.590005 1439.60692,578.89027 1428.03086,578.89027 C1425.81686,578.89027 1423.6642,579.143985 1421.59493,579.606805 C1421.59972,579.36796 1421.6141,579.130974 1421.6141,578.89027 C1421.6141,555.981622 1402.46156,537.410282 1378.83502,537.410282 C1376.86351,537.410282 1374.92554,537.550615 1373.02495,537.801541 C1363.01499,516.802721 1341.1146,502.224828 1315.69098,502.224828 C1293.64587,502.224828 1274.24989,513.186593 1262.95562,529.787696 C1243.22515,530.211483 1226.79554,543.579353 1222.34167,561.487132 C1215.38817,556.746482 1206.92034,553.954694 1197.77489,553.954694 C1174.39851,553.954694 1155.4137,572.139422 1155.01499,594.714431 C1141.88338,600.163251 1129.969,609.357379 1128.39045,622.673205 C1127.72433,628.286521 1128.74603,634.818971 1124.62952,638.818924 C1122.89666,640.503848 1120.36637,641.553092 1119.39643,643.739869 C1117.38275,648.27606 1123.45064,652.07713 1128.35402,653.410757 C1190.60479,670.339923 1256.697,658.989687 1321.29116,656.323362 C1357.40044,654.832673 1393.56243,656.104963 1429.68034,657.377252 C1441.24489,657.78524 1452.81041,658.192298 1464.37496,658.599357 C1475.48713,658.991545 1486.5993,659.382805 1497.71147,659.774064 C1507.92079,660.133725 1518.13106,660.494316 1528.34038,660.853977 C1530.48441,660.929255 1532.72717,660.985945 1534.66034,660.08261 C1540.1963,657.497139 1539.43722,649.729574 1537.8117,643.98336" id="Fill-1" fill="url(#linearGradient-5)" mask="url(#mask-2)"></path>
                                    </g>
                                </g>
                                <mask id="mask-14" fill="white">
                                    <use xlink:href="#path-13"></use>
                                </mask>
                                <g id="Clip-2"></g>
                            </g>
                            <g id="Oval">
                                <use fill="black" fill-opacity="1" filter="url(#filter-17)" xlink:href="#path-16"></use>
                                <use fill="url(#radialGradient-15)" fill-rule="evenodd" xlink:href="#path-16"></use>
                            </g>
                            <g id="Page-1" transform="translate(930.000000, 621.000000)">
                                <path d="M87.0787658,387 C86.7034813,387 86.2959255,386.991667 85.9149155,386.970315 C65.223781,385.843844 48.8991672,356.457177 36,297.126077 L40.6980826,296.103764 C52.7321697,351.44092 68.4540382,381.199952 86.1704837,382.166019 C122.55642,384.105444 160.067169,273.12595 160.442974,272 L165,273.525917 C163.439004,278.202619 126.618445,387 87.0787658,387 Z" id="Fill-1" fill="#051A3C"></path>
                                <path d="M17.033872,284.359947 C17.033872,281.76656 20.4206334,278.866477 24.6004481,278.866477 C28.7761268,278.866477 32.1566844,281.76656 32.1566844,284.359947 L32.1566844,293.516597 L17.033872,293.516597 L17.033872,284.359947 Z M17.033872,311.448867 C17.033872,308.847162 20.4206334,305.952798 24.6004481,305.952798 C28.7761268,305.952798 32.1566844,308.847162 32.1566844,311.448867 L32.1566844,324.749011 L17.033872,324.749011 L17.033872,311.448867 Z M17.033872,342.124553 C17.033872,339.525967 20.4206334,336.629004 24.6004481,336.629004 C28.7761268,336.629004 32.1566844,339.525967 32.1566844,342.124553 L32.1566844,357.912561 L17.033872,357.912561 L17.033872,342.124553 Z M17.033872,374.462627 C17.033872,371.869239 20.4206334,368.969677 24.6004481,368.969677 C28.7761268,368.969677 32.1566844,371.869239 32.1566844,374.462627 L32.1566844,399.373497 L17.033872,399.373497 L17.033872,374.462627 Z M12,420 L39,400.796767 L39,267 L12,267 L12,420 Z" id="Fill-17" fill="#399DFF"></path>
                                <path d="M29.4785796,393 C32.8008713,393 36.1666609,392.322761 39.5195187,390.972946 C110.68898,362.34029 167.617026,20.2334765 170,5.68449344 L164.619792,5 C164.042564,8.53179959 105.763736,359.064981 37.2593963,386.619858 C31.0633104,389.11585 25.1058746,388.671784 19.0690847,385.256053 L17,389.749563 C21.3844611,392.225346 24.9836105,393 29.4785796,393" id="Fill-3" fill="#051A3C"></path>
                                <polygon id="Fill-5" fill="#051A3C" points="216 79 221 85.7882869 221 381 216 381"></polygon>
                                <polygon id="Fill-7" fill="#051A3C" points="200 79 205 85.7882869 205 381 200 381"></polygon>
                                <polygon id="Fill-9" fill="#051A3C" points="185 41 190 48.6414927 190 381 185 381"></polygon>
                                <path d="M485.874576,331 L489,324.242317 C487.502944,322.99744 339.388693,198.740347 244.516077,0 L238,3.07798743 C333.579719,203.304724 484.366577,329.749422 485.874576,331" id="Fill-11" fill="#399DFF"></path>
                                <mask id="mask-19" fill="white">
                                    <use xlink:href="#path-18"></use>
                                </mask>
                                <g id="Clip-15"></g>
                                <path d="M181.739769,49.9479206 C181.739769,42.4764264 191.642921,34.1420417 203.860396,34.1420417 C216.073169,34.1420417 225.981546,42.4764264 225.981546,49.9479206 L225.981546,76.2996637 L181.739769,76.2996637 L181.739769,49.9479206 Z M181.739769,127.893276 C181.739769,120.419199 191.642921,112.086881 203.860396,112.086881 C216.073169,112.086881 225.981546,120.419199 225.981546,127.893276 L225.981546,166.172025 L181.739769,166.172025 L181.739769,127.893276 Z M181.739769,216.175749 C181.739769,208.704255 191.642921,200.369871 203.860396,200.369871 C216.073169,200.369871 225.981546,208.704255 225.981546,216.175749 L225.981546,261.609771 L181.739769,261.609771 L181.739769,216.175749 Z M181.739769,309.225304 C181.739769,301.75381 191.642921,293.418909 203.860396,293.418909 C216.084142,293.418909 225.981546,301.75381 225.981546,309.225304 L225.981546,380.905146 L181.739769,380.905146 L181.739769,309.225304 Z M167,385 L246,385 L246,0 L167,0 L167,385 Z" id="Fill-14" fill="#399DFF"></path>
                                <polygon id="Fill-19" fill="#399DFF" points="225 558 245 558 245 391 225 391"></polygon>
                                <polygon id="Fill-21" fill="#399DFF" points="169 399.222873 232.777584 463 242 453.774516 178.228162 390"></polygon>
                                <polygon id="Fill-22" fill="#399DFF" points="175.78987 457 226 406.791616 217.215106 398 167 448.212861"></polygon>
                                <polygon id="Fill-23" fill="#399DFF" points="167 458.220134 230.777518 522 240 512.774642 176.227706 449"></polygon>
                                <polygon id="Fill-24" fill="#399DFF" points="176.253599 518 237 458.578888 228.096503 448 167 508.872173"></polygon>
                                <polygon id="Fill-26" fill="#399DFF" points="153 565 180 565 180 398 153 398"></polygon>
                                <polygon id="Fill-29" fill="#399DFF" points="14 460 19 460 19 411 14 411"></polygon>
                                <polygon id="Fill-30" fill="#399DFF" points="33 460 38 460 38 411 33 411"></polygon>
                                <polygon id="Fill-31" fill="#399DFF" points="18 412.65507 36.3506697 431 39 428.34232 20.6550704 410"></polygon>
                                <polygon id="Fill-32" fill="#399DFF" points="19.6766446 429 35 413.679337 32.3180833 411 17 426.318027"></polygon>
                                <polygon id="Fill-33" fill="#399DFF" points="18 430.64933 36.3402331 449 39 446.342842 20.6493303 428"></polygon>
                                <polygon id="Fill-34" fill="#399DFF" points="19.6460034 448 37 431.028422 34.4621665 428 17 445.390211"></polygon>
                                <polygon id="Fill-35" fill="#399DFF" points="18 456 36 456 36 451 18 451"></polygon>
                                <polygon id="Fill-36" fill="#399DFF" points="13.6522715 453.708151 9 456.920393 9 463 21 463 21 451"></polygon>
                                <polygon id="Fill-37" fill="#399DFF" points="40.3356078 453.708151 45 456.920393 45 463 33 463 33 451"></polygon>
                                <polygon id="Fill-38" fill="#000000" points="131 380 136 380 136 168 131 168"></polygon>
                                <polygon id="Fill-39" fill="#000000" points="140 384 145 384 145 143 140 143"></polygon>
                                <polygon id="Fill-40" fill="#000000" points="147 383 152 383 152 83 147 83"></polygon>
                                <polygon id="Fill-41" fill="#000000" points="155 381 160 381 160 71 155 71"></polygon>
                                <polygon id="Fill-42" fill="#000000" points="125 389 130 389 130 193 125 193"></polygon>
                                <polygon id="Fill-43" fill="#000000" points="115 383 120 383 120 225 115 225"></polygon>
                                <polygon id="Fill-44" fill="#000000" points="108 388 113 388 113 261 108 261"></polygon>
                                <polygon id="Fill-45" fill="#000000" points="102 396 107 396 107 285 102 285"></polygon>
                                <polygon id="Fill-46" fill="#000000" points="94 398 99 398 99 293 94 293"></polygon>
                                <polygon id="Fill-47" fill="#000000" points="87 399 92 399 92 313 87 313"></polygon>
                                <polygon id="Fill-48" fill="#000000" points="79 396 84 396 84 338 79 338"></polygon>
                                <polygon id="Fill-49" fill="#000000" points="59 400 64 400 64 364 59 364"></polygon>
                                <polygon id="Fill-50" fill="#000000" points="50 402 55 402 55 347 50 347"></polygon>
                                <polygon id="Fill-51" fill="#000000" points="44 398 49 398 49 328 44 328"></polygon>
                                <polygon id="Fill-52" fill="url(#linearGradient-20)" points="166 156 158 165.737526 158 385 166 385"></polygon>
                                <polygon id="Fill-53" fill="url(#linearGradient-21)" points="164 407.535126 164 563 137 563 137 542.201837 153.69862 531.219006 154.646754 407"></polygon>
                                <polyline id="Fill-54" fill="#000000" points="166 0 161 7.89777242 161 385 166 385"></polyline>
                                <path d="M470.247766,381.185696 C27.5213416,365.413227 4.86216415,413.335751 4.86216415,413.335751 L0.595980471,419.09332 L0,428.509254 C0,428.509254 68.8005038,358.710837 487,464 L487,381.774416 L470.247766,381.185696 Z" id="Fill-55" fill="url(#linearGradient-22)"></path>
                                <path d="M488,390.923124 C488,390.923124 77.1821994,362.615425 5,412 C5,412 28.1589689,363.049836 488,379.30846 L488,390.923124 Z" id="Fill-56" fill="#399DFF"></path>
                                <path d="M487,463 L487,449.711618 C487,449.711618 172.923993,366.084399 0.595980471,417.976795 L0.530681741,421.731426 L0,427.417567 C0,427.417567 75.9963201,358.083013 487,463" id="Fill-57" fill="#000000"></path>
                                <polygon id="Fill-58" fill="#399DFF" points="395 237 400 240.960092 400 390 395 390"></polygon>
                                <polygon id="Fill-59" fill="#399DFF" points="427 267 432 272.380469 432 397 427 397"></polygon>
                                <polygon id="Fill-60" fill="#399DFF" points="360 191 365 199.175331 365 387 360 387"></polygon>
                                <polygon id="Fill-61" fill="#399DFF" points="328 149 333 157.114476 333 386 328 386"></polygon>
                                <polygon id="Fill-62" fill="#399DFF" points="298 97 303 105.087533 303 387 298 387"></polygon>
                                <polygon id="Fill-58" fill="#0F2E6B" points="387 361 392 362.915339 392 435 387 435"></polygon>
                                <polygon id="Fill-59" fill="#0F2E6B" points="421 391 426 392.738305 426 433 421 433"></polygon>
                                <polygon id="Fill-60" fill="#0F2E6B" points="352 320 357 324.629907 357 431 352 431"></polygon>
                                <polygon id="Fill-62" fill="#0F2E6B" points="292 232 297 237.159289 297 417 292 417"></polygon>
                                <polygon id="Fill-62-Copy-2" fill="#0F2E6B" points="333 291 338 294.764886 338 426 333 426"></polygon>
                                <polygon id="Fill-62-Copy" fill="#0F2E6B" points="246 178 251 184.386363 251 407 246 407"></polygon>
                                <polygon id="Fill-62-Copy-3" fill="#0F2E6B" points="194 79 199 87.4221899 199 381 194 381"></polygon>
                                <polygon id="Fill-63" fill="#399DFF" points="272 64 277 72.0552924 277 386 272 386"></polygon>
                                <polygon id="Fill-64" fill="#399DFF" points="252 27 257 35.0457485 257 385 252 385"></polygon>
                                <path d="M425.167153,408 L431,402.035573 C429.372241,400.459498 267.217057,241.667076 174.815284,3 L167,5.97757614 C260.092321,246.41985 423.527572,406.415196 425.167153,408" id="Fill-65" fill="#0F2E6B"></path>
                                <path d="M35,422 C35.024,422.344 35.024,422.684 35.024,423.02 C35.068,423 35.068,422.98 35.112,422.96 C35.068,422.636 35.024,422.324 35,422 Z" id="Stroke-66" stroke="#231F20" stroke-width="0.5"></path>
                                <path d="M35.756,422 C35.712,422.002385 35.712,422.004771 35.668,422.007156 C36.132,423.744752 35.96,425.721374 35,428 C37.264,425.487595 37.196,423.552004 35.756,422" id="Fill-67" fill="#69BBBA"></path>
                                <path d="M15,429.504 L15.016,429.48 C15.016,429.316 15.016,429.172 15.036,429 C15.016,429.188 15.016,429.316 15,429.504" id="Fill-68" fill="#004245"></path>
                            </g>
                            <path d="M2348.03175,565 C2241.4654,574.83349 2167.275,593.589106 2125.46056,621.266847 C2062.7389,662.78346 2009.98001,776.114599 2004.54662,786.535853 C1999.11323,796.957107 1944.24808,883.838865 1849.26158,906.761662 C1754.27508,929.684458 1738.89755,924.711579 1670.45359,961.582213 C1624.82428,986.162637 1582.00642,1039.00857 1542,1120.12 L2347.68,1120.12 L2348.03175,565 Z" id="Path-2" fill="url(#linearGradient-22)"></path>
                            <g id="Page-1" transform="translate(0.000000, 785.000000)">
                                <mask id="mask-24" fill="white">
                                    <use xlink:href="#path-23"></use>
                                </mask>
                                <g id="Clip-2"></g>
                                <path d="M471.929328,164.736072 C469.134288,154.547352 465.678288,143.430912 456.747768,137.784672 C452.053008,134.815752 446.428368,133.790832 440.965728,132.779952 C438.726888,132.366312 436.493448,131.928912 434.257848,131.501232 C434.355048,130.483872 434.409048,129.453552 434.409048,128.410272 C434.409048,110.686392 420.039648,96.316992 402.315768,96.316992 C392.319288,96.316992 383.393088,100.887552 377.507088,108.051192 C372.487248,96.877512 361.269288,89.091792 348.225048,89.091792 C345.730248,89.091792 343.304568,89.386632 340.972848,89.924472 C340.978248,89.646912 340.994448,89.371512 340.994448,89.091792 C340.994448,62.469792 319.412808,40.888152 292.789728,40.888152 C290.568168,40.888152 288.384408,41.051232 286.242768,41.342832 C274.963248,16.940232 250.285248,-0.000648 221.637168,-0.000648 C196.796088,-0.000648 174.940128,12.737952 162.213408,32.029992 C139.980528,32.522472 121.467168,48.057192 116.448408,68.867712 C108.613008,63.358632 99.071208,60.114312 88.765848,60.114312 C62.424648,60.114312 41.032008,81.246672 40.582728,107.480952 C25.785648,113.812992 12.360168,124.497432 10.581408,139.971672 C9.830808,146.494872 10.982088,154.086192 6.343488,158.734512 C4.390848,160.692552 1.539648,161.911872 0.446688,164.453112 C-1.822392,169.724592 5.015088,174.141792 10.540368,175.691592 C80.686368,195.364872 155.161008,182.174832 227.947608,179.076312 C268.636608,177.343992 309.385008,178.822512 350.083728,180.301032 C363.115008,180.775152 376.147368,181.248192 389.178648,181.721232 C401.700168,182.176992 414.221688,182.631672 426.743208,183.086352 C438.247368,183.504312 449.752608,183.923352 461.256768,184.341312 C463.672728,184.428792 466.199928,184.494672 468.378288,183.444912 C474.616368,180.440352 473.761008,171.413712 471.929328,164.736072" id="Fill-1" fill="url(#linearGradient-5)" mask="url(#mask-24)"></path>
                            </g>
                            <g id="Page-1-Copy-9" transform="translate(44.000000, 925.000000)">
                                <mask id="mask-26" fill="white">
                                    <use xlink:href="#path-25"></use>
                                </mask>
                                <g id="Clip-2"></g>
                                <path d="M768.93828,268.385372 C764.384181,251.786137 758.753146,233.675483 744.202199,224.476755 C736.55279,219.639857 727.388281,217.97008 718.487726,216.323177 C714.839871,215.649284 711.200815,214.936682 707.558239,214.239915 C707.716612,212.582455 707.804597,210.903881 707.804597,209.204193 C707.804597,180.328845 684.391809,156.91854 655.513398,156.91854 C639.225629,156.91854 624.681721,164.364794 615.091365,176.035636 C606.912287,157.831727 588.634299,145.147406 567.380661,145.147406 C563.315758,145.147406 559.363475,145.627753 555.564286,146.50399 C555.573085,146.051795 555.59948,145.60312 555.59948,145.147406 C555.59948,101.775441 520.435426,66.6151165 477.0571,66.6151165 C473.4374,66.6151165 469.87929,66.8808027 466.389808,67.3558709 C448.011517,27.599702 407.802408,0 361.124647,0 C320.649823,0 285.038806,20.7534416 264.302519,52.1836007 C228.077367,52.9859381 197.912616,78.2947557 189.735298,112.198788 C176.968685,103.223519 161.42175,97.9379454 144.630707,97.9379454 C101.711662,97.9379454 66.8555554,132.366313 66.1235208,175.106614 C42.0138925,185.422631 20.1390811,202.829481 17.2408578,228.039766 C16.0178674,238.667218 17.8937059,251.034826 10.3358011,258.607765 C7.15426631,261.79776 2.50866242,263.784248 0.727847598,267.92438 C-2.96927883,276.512557 8.17137201,283.70896 17.1739892,286.233859 C131.466403,318.285126 252.811688,296.796209 371.406565,291.748169 C437.703204,288.925912 504.096626,291.334684 570.409102,293.743456 C591.641624,294.515881 612.875905,295.286547 634.108426,296.057214 C654.51037,296.799728 674.912314,297.540482 695.314257,298.281237 C714.058565,298.962168 732.804633,299.644858 751.54894,300.325789 C755.485386,300.46831 759.60308,300.57564 763.152392,298.865394 C773.31641,293.970433 771.922729,279.264433 768.93828,268.385372" id="Fill-1" fill="url(#linearGradient-5)" mask="url(#mask-26)"></path>
                            </g>
                        </g>
                    </g>
                </g>
            </g>
        </g>
    </g>
</svg>